<?xml version="1.0" encoding="utf-8"?>
<svg version="1.1" xmlns:xlink="http://www.w3.org/1999/xlink" width="182px" height="147px" xmlns="http://www.w3.org/2000/svg">
  <defs>
    <mask fill="white" id="clip23">
      <path d="M 0 137  L 0 10  C 0 4.40000000000001  4.39999999999998 0  10 0  L 145.200000000001 0  L 172 0  C 177.6 0  182 4.40000000000001  182 10  L 182 137  C 182 142.6  177.6 147  172 147  L 10 147  C 4.39999999999998 147  0 142.6  0 137  Z " fill-rule="evenodd" />
    </mask>
  </defs>
  <g transform="matrix(1 0 0 1 -367 -249 )">
    <path d="M 0 137  L 0 10  C 0 4.40000000000001  4.39999999999998 0  10 0  L 145.200000000001 0  L 172 0  C 177.6 0  182 4.40000000000001  182 10  L 182 137  C 182 142.6  177.6 147  172 147  L 10 147  C 4.39999999999998 147  0 142.6  0 137  Z " fill-rule="nonzero" fill="#000080" stroke="none" fill-opacity="0.996078431372549" transform="matrix(1 0 0 1 367 249 )" />
    <path d="M 0 137  L 0 10  C 0 4.40000000000001  4.39999999999998 0  10 0  L 145.200000000001 0  L 172 0  C 177.6 0  182 4.40000000000001  182 10  L 182 137  C 182 142.6  177.6 147  172 147  L 10 147  C 4.39999999999998 147  0 142.6  0 137  Z " stroke-width="2" stroke="#ffffff" fill="none" transform="matrix(1 0 0 1 367 249 )" mask="url(#clip23)" />
  </g>
</svg>