<?xml version="1.0" encoding="utf-8"?>
<svg version="1.1" xmlns:xlink="http://www.w3.org/1999/xlink" width="185px" height="147px" xmlns="http://www.w3.org/2000/svg">
  <defs>
    <mask fill="white" id="clip2">
      <path d="M 0 137  L 0 10  C 0 4.40000000000001  4.47252747252745 0  10.1648351648352 0  L 147.593406593407 0  L 174.835164835165 0  C 180.527472527473 0  185 4.40000000000001  185 10  L 185 137  C 185 142.6  180.527472527473 147  174.835164835165 147  L 10.1648351648352 147  C 4.47252747252745 147  0 142.6  0 137  Z " fill-rule="evenodd" />
    </mask>
  </defs>
  <g transform="matrix(1 0 0 1 -308 -241 )">
    <path d="M 0 137  L 0 10  C 0 4.40000000000001  4.47252747252745 0  10.1648351648352 0  L 147.593406593407 0  L 174.835164835165 0  C 180.527472527473 0  185 4.40000000000001  185 10  L 185 137  C 185 142.6  180.527472527473 147  174.835164835165 147  L 10.1648351648352 147  C 4.47252747252745 147  0 142.6  0 137  Z " fill-rule="nonzero" fill="#000080" stroke="none" fill-opacity="0.996078431372549" transform="matrix(1 0 0 1 308 241 )" />
    <path d="M 0 137  L 0 10  C 0 4.40000000000001  4.47252747252745 0  10.1648351648352 0  L 147.593406593407 0  L 174.835164835165 0  C 180.527472527473 0  185 4.40000000000001  185 10  L 185 137  C 185 142.6  180.527472527473 147  174.835164835165 147  L 10.1648351648352 147  C 4.47252747252745 147  0 142.6  0 137  Z " stroke-width="2" stroke="#ffffff" fill="none" transform="matrix(1 0 0 1 308 241 )" mask="url(#clip2)" />
  </g>
</svg>